<?xml version="1.0" encoding="UTF-8" standalone="no"?>
<!-- Created with Inkscape (http://www.inkscape.org/) -->

<svg
   width="24"
   height="24"
   viewBox="0 0 24 24"
   version="1.1"
   id="SVGRoot"
   inkscape:version="1.1.2 (b8e25be833, 2022-02-05)"
   sodipodi:docname="bangu.svg"
   xmlns:inkscape="http://www.inkscape.org/namespaces/inkscape"
   xmlns:sodipodi="http://sodipodi.sourceforge.net/DTD/sodipodi-0.dtd"
   xmlns="http://www.w3.org/2000/svg"
   xmlns:svg="http://www.w3.org/2000/svg"
   xmlns:rdf="http://www.w3.org/1999/02/22-rdf-syntax-ns#"
   xmlns:cc="http://creativecommons.org/ns#"
   xmlns:dc="http://purl.org/dc/elements/1.1/">
  <defs
     id="defs3732" />
  <sodipodi:namedview
     id="base"
     pagecolor="#ffffff"
     bordercolor="#666666"
     borderopacity="1.0"
     inkscape:pageopacity="0.0"
     inkscape:pageshadow="2"
     inkscape:zoom="20.48"
     inkscape:cx="7.1044922"
     inkscape:cy="8.8134766"
     inkscape:document-units="px"
     inkscape:current-layer="layer1"
     showgrid="false"
     inkscape:window-width="1920"
     inkscape:window-height="1055"
     inkscape:window-x="3840"
     inkscape:window-y="0"
     inkscape:window-maximized="1"
     inkscape:grid-bbox="true"
     inkscape:pagecheckerboard="0"
     width="16px" />
  <metadata
     id="metadata3735">
    <rdf:RDF>
      <cc:Work
         rdf:about="">
        <dc:format>image/svg+xml</dc:format>
        <dc:type
           rdf:resource="http://purl.org/dc/dcmitype/StillImage" />
      </cc:Work>
    </rdf:RDF>
  </metadata>
  <g
     inkscape:label="Layer 1"
     inkscape:groupmode="layer"
     id="layer1">
    <path
       style="fill:#000000;stroke-width:0.251313"
       d="M 20.43227,23.779393 C 19.876242,23.66704 18.397715,23.217031 17.146652,22.779361 14.352593,21.801892 12.343583,21.635284 8.1743815,22.035286 4.4339006,22.394155 3.8409629,22.235096 1.876941,20.345966 0.23573917,18.767345 0.08388779,17.956369 0.09779611,10.844261 0.11256759,3.2903374 0.25905995,2.8911321 3.5670497,1.3901816 5.92215,0.32159018 7.9152548,0.01691033 12.534822,0.01930529 c 4.364652,0.0022739 8.986208,0.72980642 10.047537,1.58172361 0.624258,0.5010868 0.629747,0.5404944 0.59692,4.2871373 -0.03212,3.6664954 -0.273578,5.2469018 -1.112223,7.2799048 -0.170091,0.412324 -0.316189,1.761747 -0.324665,2.998717 -0.01505,2.197232 0.01191,2.302168 1.169602,4.555556 0.651754,1.268586 1.185007,2.465412 1.185007,2.659614 0,0.665245 -1.522241,0.830333 -3.66473,0.397435 z m 1.64281,-1.37407 c 0,-0.07356 -0.169036,-0.388815 -0.375637,-0.700573 -1.312946,-1.981239 -1.76337,-5.731412 -1.011278,-8.419748 C 21.771463,9.4127854 22.31673,5.2739719 21.978457,3.4911268 21.824056,2.6773837 21.717392,2.5971753 20.238533,2.1827685 19.37204,1.9399598 18.333352,1.6415895 17.930342,1.5197235 16.959705,1.2262148 11.438847,1.2446047 8.4271216,1.551378 3.9159894,2.0108808 1.9246575,3.1896208 1.5765873,5.6064524 1.3113152,7.4483729 1.3216772,14.816177 1.5924932,16.916468 c 0.2114435,1.639833 0.293925,1.808103 1.3186153,2.690094 1.3837678,1.191063 2.6845537,1.568174 4.150377,1.203232 0.5961958,-0.148431 2.1745282,-0.269877 3.5074055,-0.269877 1.920997,0 2.453573,-0.0777 2.568893,-0.37484 0.172103,-0.443443 1.245793,-0.501978 1.508174,-0.08222 0.121194,0.193893 0.251385,0.109585 0.38588,-0.249893 0.145953,-0.390109 0.414072,-0.54251 0.954421,-0.54251 0.413299,0 0.821739,-0.112452 0.90765,-0.249893 0.08728,-0.139621 -0.106899,-0.249893 -0.440013,-0.249893 -1.40643,0 -1.657521,-1.48247 -0.381392,-2.251777 1.150577,-0.693617 1.914735,-0.644016 2.21773,0.143954 0.64882,1.687299 -0.111322,3.675522 -1.522385,3.981954 -0.437071,0.09492 -0.733881,0.23268 -0.65958,0.306143 0.0743,0.07347 1.191327,0.449967 2.482285,0.836675 2.245851,0.672745 3.484527,0.885217 3.484526,0.597708 z m -9.530888,-3.614658 c -0.0727,-0.274883 -0.289521,-0.499786 -0.481818,-0.499786 -0.192298,0 -0.349633,-0.101932 -0.349633,-0.226498 0,-0.124578 -0.210188,-0.172153 -0.467079,-0.105736 -0.256895,0.06643 -0.896318,-0.05656 -1.4209375,-0.273287 C 9.3001044,17.468626 8.5475624,17.2913 8.1524083,17.2913 c -1.2272561,0 -1.6245517,-1.661321 -0.529575,-2.214458 0.7597357,-0.383786 2.2845854,-0.04212 2.4725897,0.55403 0.352092,1.116458 1.239876,1.214869 1.453036,0.161069 0.162864,-0.805136 0.969356,-1.051194 1.352238,-0.412559 0.111157,0.185413 0.543312,0.495438 0.960333,0.688942 0.561457,0.260526 0.777812,0.549374 0.833711,1.113074 0.144541,1.457589 -1.80485,2.916323 -2.150549,1.609262 z M 3.7274187,18.515255 C 3.3239375,18.07504 3.2459521,17.599443 3.2459521,15.579011 c 0,-2.405074 0.00154,-2.41094 0.6318499,-2.41094 0.6145052,0 0.6353189,0.05831 0.75822,2.124091 l 0.1263695,2.124091 1.0522708,0.0758 c 1.1237686,0.08094 1.5808355,0.596091 1.0694328,1.205353 -0.4741425,0.564871 -2.5835601,0.44316 -3.1566768,-0.182137 z M 18.36944,13.652557 c -0.157254,-0.405177 0.04223,-2.522368 0.339706,-3.605336 0.151152,-0.5502882 0.07706,-0.5163337 -0.643242,0.294812 -0.967097,1.089057 -2.163688,1.452825 -2.778705,0.844736 -0.325965,-0.322295 -0.413679,-0.922896 -0.414353,-2.8372196 -7.59e-4,-2.4239001 2.54e-4,-2.4283783 0.630993,-2.4283783 0.594011,0 0.633521,0.082313 0.659714,1.3744122 0.04592,2.2649499 0.08481,2.499122 0.414433,2.4945155 0.173759,-0.00242 0.590459,-0.5928003 0.926002,-1.3119384 1.044288,-2.2381299 1.702561,-2.6819352 2.402699,-1.61989 0.325041,0.493055 0.325765,0.9419653 0.0059,3.6472236 -0.200629,1.696732 -0.428384,3.186718 -0.50612,3.311084 -0.226769,0.362782 -0.872172,0.2607 -1.037009,-0.164021 z M 6.2706304,11.737691 C 6.1974569,11.549152 6.0556342,10.520142 5.9554696,9.4510053 L 5.7733519,7.5071187 4.6762359,8.2939968 C 3.5650826,9.0909432 2.866842,9.1371974 2.866842,8.4138581 c 0,-1.1135814 4.1258427,-3.4985552 4.6364029,-2.6801069 0.064304,0.1030806 0.042582,1.5355931 -0.048269,3.1833604 C 7.3127268,11.497075 7.2282741,11.924677 6.8467322,11.996771 6.6030496,12.042803 6.3438037,11.926241 6.2706304,11.737691 Z M 10.701781,11.623103 C 9.9516011,11.340237 9.1853409,10.445287 9.1853409,9.8519852 c 0,-0.9282131 0.7239471,-1.9355308 1.9350021,-2.6924085 0.603833,-0.3773801 1.097879,-0.7416832 1.097879,-0.8095625 0,-0.06788 -0.666968,-0.06362 -1.482149,0.00947 C 9.0898295,6.5070741 8.5869799,6.3325935 8.7181785,5.659306 8.8381196,5.0437912 9.9925951,4.7832639 11.781134,4.9680973 c 1.684368,0.1740688 2.206267,0.5474996 2.206267,1.5786403 0,0.7117554 -1.054922,1.7484186 -1.779213,1.7484186 -0.339332,0 -1.506407,1.1481008 -1.506407,1.4819164 0,0.2236304 1.079302,0.6899584 1.895551,0.8190004 0.308697,0.0488 0.505479,0.273145 0.505479,0.576277 0,0.404383 -0.187338,0.505382 -1.01096,0.545032 -0.556028,0.02676 -1.181559,-0.01566 -1.39007,-0.09429 z M 16.885135,4.8087663 C 15.718713,4.3412942 15.434534,3.2499557 16.335856,2.6993452 c 0.37032,-0.2262236 0.539554,-0.1640195 0.928043,0.3411135 0.377743,0.4911582 0.712741,0.6222064 1.634327,0.6393329 1.285038,0.023881 1.759347,0.321287 1.515291,0.9501278 C 20.287896,4.9535881 19.933603,5.0430113 18.825604,5.0307057 18.041187,5.02199 17.167974,4.9221211 16.885135,4.8087663 Z M 5.8997219,3.6988694 c 0,-0.8085829 0.1147622,-1.1413256 0.4356274,-1.2630663 0.5982535,-0.2269856 1.1105962,0.5236597 0.9140579,1.339208 -0.2213201,0.918382 -0.3081535,1.0216413 -0.8591213,1.0216413 -0.4111457,0 -0.490564,-0.1777218 -0.490564,-1.097783 z"
       id="path3756"
       inkscape:connector-curvature="0" />
  </g>
</svg>
